<?xml version="1.0" standalone="no"?>
<!DOCTYPE svg PUBLIC "-//W3C//DTD SVG 20010904//EN"
 "http://www.w3.org/TR/2001/REC-SVG-20010904/DTD/svg10.dtd">
<svg version="1.0" xmlns="http://www.w3.org/2000/svg"
 width="3264.000000pt" height="3264.000000pt" viewBox="0 0 3264.000000 3264.000000"
 preserveAspectRatio="xMidYMid meet">
<metadata>
Created by potrace 1.14, written by Peter Selinger 2001-2017
</metadata>
<g transform="translate(0.000000,3264.000000) scale(0.100000,-0.100000)"
fill="#000000" stroke="none">
<path d="M15978 32314 c-4 -3 -67 -8 -140 -10 -73 -2 -150 -5 -170 -8 -21 -2
-38 0 -38 6 0 5 -6 6 -12 1 -7 -4 -31 -8 -53 -9 -134 -5 -396 -22 -470 -29
-27 -3 -81 -8 -120 -11 -66 -4 -154 -12 -200 -18 -11 -1 -26 3 -34 8 -11 8
-13 8 -8 -1 5 -7 1 -12 -10 -12 -24 0 -128 -10 -128 -12 0 -1 -9 -3 -20 -4
-32 -4 -177 -18 -210 -20 -16 -2 -30 -4 -30 -5 0 -1 -11 -3 -25 -4 -14 -2 -50
-6 -80 -11 -30 -4 -67 -8 -82 -9 -16 0 -28 -3 -28 -6 0 -3 -12 -5 -27 -6 -30
0 -124 -11 -159 -18 -25 -5 -91 -16 -119 -20 -75 -12 -114 -18 -140 -23 -16
-3 -41 -6 -55 -8 -14 -1 -34 -5 -45 -8 -11 -3 -38 -8 -60 -12 -22 -3 -47 -7
-55 -10 -8 -2 -32 -6 -52 -9 -21 -2 -41 -7 -46 -10 -9 -5 -85 -17 -129 -20
-13 0 -23 -4 -23 -8 0 -3 -11 -5 -25 -3 -14 1 -25 -1 -25 -5 0 -5 -8 -7 -17
-5 -10 1 -22 0 -28 -4 -5 -3 -12 -6 -15 -6 -6 -1 -68 -14 -97 -20 -13 -3 -33
-7 -45 -10 -13 -2 -36 -8 -53 -12 -16 -3 -39 -8 -50 -9 -11 -1 -33 -6 -50 -10
-16 -3 -39 -7 -50 -8 -11 0 -23 -5 -26 -9 -3 -5 -17 -10 -30 -11 -13 -2 -73
-15 -132 -30 -60 -14 -113 -24 -118 -20 -5 3 -9 0 -9 -5 0 -6 -3 -10 -7 -10
-5 1 -11 0 -15 -1 -5 -1 -11 -3 -15 -5 -42 -11 -61 -16 -78 -19 -11 -1 -27 -6
-35 -9 -17 -7 -167 -46 -196 -52 -10 -2 -19 -4 -19 -5 0 -1 -7 -3 -15 -5 -8
-1 -35 -9 -60 -16 -25 -7 -47 -13 -50 -14 -3 -1 -23 -6 -44 -13 -22 -6 -43 -9
-48 -6 -4 3 -8 0 -8 -7 0 -7 -3 -9 -7 -6 -3 4 -12 2 -20 -4 -7 -6 -13 -8 -13
-4 0 4 -7 2 -15 -5 -8 -7 -15 -10 -15 -7 0 4 -19 0 -42 -9 -22 -8 -43 -12 -46
-9 -3 3 -10 1 -16 -4 -11 -8 -105 -41 -129 -45 -7 -1 -18 -5 -24 -9 -7 -5 -17
-5 -23 -2 -5 3 -10 1 -10 -4 0 -6 -7 -11 -15 -11 -8 0 -48 -11 -89 -25 -42
-13 -84 -25 -93 -27 -10 -2 -20 -6 -23 -10 -3 -4 -15 -9 -25 -11 -11 -2 -28
-7 -37 -11 -9 -4 -22 -9 -30 -10 -7 -1 -23 -8 -35 -14 -13 -7 -23 -9 -23 -5 0
4 -5 2 -12 -5 -7 -7 -19 -12 -28 -12 -10 0 -30 -7 -47 -15 -16 -8 -38 -16 -49
-18 -10 -2 -32 -9 -49 -16 -16 -6 -50 -19 -75 -28 -25 -8 -52 -18 -60 -21 -8
-3 -18 -4 -22 -4 -5 1 -8 -2 -8 -6 0 -5 -6 -9 -12 -9 -7 -1 -36 -10 -65 -21
-28 -11 -54 -17 -57 -14 -3 3 -6 0 -6 -6 0 -7 -8 -12 -18 -12 -10 0 -22 -3
-26 -7 -4 -5 -11 -8 -14 -9 -9 -1 -31 -9 -112 -42 -36 -15 -67 -27 -70 -27 -3
-1 -14 -6 -25 -12 -24 -13 -87 -33 -99 -32 -5 0 -12 -3 -15 -8 -3 -4 -33 -19
-66 -32 -33 -13 -82 -34 -110 -46 -75 -33 -89 -38 -97 -37 -5 1 -8 -3 -8 -8 0
-6 -7 -10 -15 -10 -8 0 -23 -4 -33 -9 -33 -19 -136 -63 -148 -65 -7 -1 -18 -7
-26 -13 -7 -6 -25 -14 -41 -18 -15 -4 -27 -11 -27 -16 0 -5 -8 -9 -18 -9 -10
0 -27 -7 -38 -15 -12 -8 -24 -12 -26 -9 -3 2 -11 -2 -18 -11 -7 -8 -18 -15
-25 -15 -7 0 -54 -21 -106 -46 -52 -26 -100 -47 -106 -47 -7 0 -13 -4 -13 -7
0 -9 -101 -55 -112 -52 -5 1 -8 -3 -8 -9 0 -5 -4 -7 -10 -4 -5 3 -10 2 -10 -3
0 -8 -28 -20 -47 -20 -3 0 -9 -4 -12 -9 -3 -5 -76 -44 -161 -87 -85 -43 -161
-83 -167 -88 -7 -6 -13 -7 -13 -2 0 4 -7 -1 -15 -12 -8 -10 -15 -16 -15 -11 0
4 -18 -4 -40 -18 -22 -14 -42 -25 -46 -25 -3 0 -18 -9 -34 -20 -15 -11 -30
-17 -34 -13 -3 3 -6 1 -6 -6 0 -7 -4 -9 -10 -6 -5 3 -10 2 -10 -2 0 -5 -27
-22 -60 -38 -33 -17 -60 -34 -60 -38 0 -5 -4 -6 -9 -2 -5 3 -15 -1 -23 -8 -7
-7 -20 -16 -28 -20 -8 -4 -33 -18 -55 -32 -22 -14 -47 -28 -55 -32 -8 -4 -43
-24 -78 -45 -34 -21 -66 -38 -71 -38 -5 0 -14 -7 -21 -15 -7 -8 -16 -12 -21
-9 -5 3 -9 0 -9 -5 0 -6 -7 -11 -15 -11 -8 0 -15 -4 -15 -10 0 -5 -11 -12 -25
-16 -14 -3 -25 -9 -25 -13 0 -9 -51 -35 -62 -33 -5 1 -8 -2 -8 -8 0 -5 -18
-20 -41 -32 -90 -51 -102 -58 -317 -200 -41 -26 -78 -48 -83 -48 -5 0 -9 -4
-9 -8 0 -4 -22 -21 -50 -37 -27 -16 -50 -33 -50 -38 0 -4 -4 -5 -10 -2 -6 3
-10 2 -10 -3 0 -5 -16 -17 -35 -28 -19 -10 -35 -22 -35 -26 0 -5 -6 -8 -13 -8
-8 0 -22 -9 -32 -20 -10 -11 -22 -17 -26 -14 -5 3 -9 1 -9 -5 0 -5 -17 -20
-37 -32 -21 -13 -47 -31 -57 -41 -11 -10 -24 -18 -28 -18 -5 0 -14 -4 -21 -10
-44 -36 -108 -84 -188 -140 -50 -36 -97 -70 -103 -75 -6 -6 -27 -22 -46 -35
-19 -13 -40 -29 -46 -35 -6 -5 -27 -21 -47 -35 -20 -14 -37 -29 -37 -33 0 -5
-4 -5 -10 -2 -5 3 -10 1 -10 -4 0 -6 -19 -23 -42 -38 -23 -16 -50 -35 -58 -43
-9 -8 -28 -24 -44 -35 -15 -11 -37 -28 -49 -38 -12 -10 -37 -31 -56 -45 -19
-15 -51 -42 -72 -59 -20 -18 -40 -33 -45 -33 -5 0 -15 -9 -22 -21 -7 -12 -15
-19 -18 -16 -2 2 -30 -20 -62 -49 -31 -30 -61 -54 -67 -54 -5 -1 -21 -14 -35
-30 -13 -17 -27 -30 -32 -30 -4 0 -20 -12 -36 -27 -15 -16 -45 -41 -66 -58
-21 -16 -53 -43 -70 -60 -18 -16 -55 -50 -82 -74 -109 -96 -189 -167 -218
-195 -102 -94 -282 -264 -363 -343 -52 -51 -99 -93 -104 -93 -5 0 -8 -3 -7 -7
1 -5 -77 -88 -174 -185 -96 -98 -173 -178 -172 -178 2 0 -24 -27 -56 -60 -33
-34 -60 -63 -60 -65 0 -2 -21 -26 -47 -52 -27 -27 -77 -82 -113 -122 -36 -41
-79 -89 -97 -107 -17 -19 -30 -34 -27 -34 2 0 -11 -15 -29 -34 -18 -18 -50
-55 -72 -81 -22 -27 -49 -59 -60 -71 -11 -12 -33 -39 -50 -60 -16 -20 -34 -42
-40 -48 -5 -6 -35 -41 -65 -76 -30 -36 -58 -66 -62 -68 -5 -2 -8 -8 -8 -14 0
-5 -6 -15 -12 -23 -7 -7 -24 -27 -38 -45 -14 -18 -37 -45 -52 -61 -14 -15 -24
-30 -21 -32 2 -3 -8 -14 -23 -26 -15 -11 -24 -21 -20 -21 4 0 1 -6 -6 -14 -7
-8 -22 -26 -33 -40 -11 -15 -25 -32 -30 -39 -6 -6 -33 -41 -60 -77 -27 -36
-69 -92 -94 -125 -25 -33 -49 -61 -53 -63 -5 -2 -8 -8 -8 -14 0 -5 -6 -15 -12
-22 -7 -8 -20 -24 -28 -36 -8 -12 -21 -28 -27 -36 -7 -7 -13 -17 -13 -23 0 -6
-4 -11 -10 -11 -5 0 -10 -6 -10 -14 0 -8 -3 -16 -8 -18 -4 -1 -25 -28 -47 -58
-22 -30 -44 -58 -50 -62 -6 -5 -6 -8 0 -8 6 0 2 -5 -7 -11 -10 -5 -18 -16 -18
-24 0 -7 -3 -15 -8 -17 -4 -1 -43 -56 -86 -121 -44 -64 -88 -126 -98 -137 -10
-11 -16 -20 -13 -20 3 0 -30 -53 -73 -117 -43 -65 -81 -126 -85 -135 -3 -10
-11 -18 -17 -18 -5 0 -10 -6 -10 -14 0 -8 -6 -21 -14 -28 -7 -8 -25 -36 -40
-63 -14 -28 -26 -46 -26 -41 0 5 -12 -13 -26 -40 -14 -27 -31 -53 -38 -59 -7
-5 -13 -12 -14 -15 -2 -13 -17 -46 -25 -55 -17 -20 -77 -121 -88 -147 -6 -16
-15 -28 -20 -28 -5 0 -9 -5 -9 -11 0 -6 -20 -45 -45 -86 -25 -40 -45 -77 -45
-81 0 -5 -8 -17 -18 -28 -9 -10 -26 -38 -36 -61 -11 -24 -22 -43 -27 -43 -4 0
-10 -13 -14 -30 -4 -16 -11 -30 -16 -30 -5 0 -9 -6 -9 -14 0 -7 -7 -19 -15
-26 -8 -7 -13 -16 -10 -20 3 -5 1 -11 -4 -15 -5 -3 -16 -18 -24 -33 -7 -15
-32 -61 -54 -102 -22 -41 -64 -122 -94 -180 -29 -58 -56 -107 -59 -110 -3 -3
-6 -12 -8 -20 -2 -8 -10 -22 -18 -31 -8 -8 -14 -19 -14 -23 0 -4 -34 -76 -75
-161 -41 -84 -75 -158 -75 -164 0 -5 -4 -11 -8 -13 -4 -1 -23 -39 -42 -83 -19
-44 -38 -81 -42 -83 -4 -2 -8 -10 -8 -18 0 -8 -4 -22 -10 -32 -18 -31 -93
-197 -96 -210 -1 -8 -13 -37 -27 -65 -13 -29 -35 -79 -48 -112 -13 -33 -28
-63 -34 -67 -5 -4 -6 -8 -2 -8 4 0 2 -10 -5 -22 -7 -13 -13 -25 -13 -28 -1 -3
-7 -18 -14 -35 -7 -16 -11 -30 -9 -31 2 0 -3 -8 -11 -17 -7 -10 -10 -17 -7
-17 4 0 1 -10 -6 -22 -6 -13 -13 -27 -14 -33 -1 -5 -15 -41 -32 -80 -35 -85
-44 -107 -48 -120 -1 -5 -9 -26 -18 -46 -8 -20 -12 -39 -9 -43 4 -3 2 -6 -4
-6 -8 0 -20 -27 -38 -90 -1 -3 -7 -18 -14 -34 -6 -16 -35 -95 -63 -175 -27
-80 -54 -155 -58 -166 -4 -11 -13 -33 -18 -50 -6 -16 -13 -39 -18 -50 -4 -11
-8 -24 -9 -30 -2 -5 -13 -41 -26 -80 -12 -38 -22 -72 -22 -75 1 -3 -3 -11 -9
-17 -6 -7 -7 -13 -4 -13 4 0 2 -9 -4 -21 -6 -11 -13 -28 -15 -38 -2 -10 -23
-79 -46 -152 -24 -74 -45 -145 -47 -159 -2 -14 -7 -27 -13 -28 -5 -2 -7 -7 -4
-12 4 -7 -5 -43 -22 -90 -5 -13 -10 -31 -17 -65 -1 -5 -4 -14 -8 -20 -3 -5 -9
-26 -14 -45 -4 -19 -8 -37 -9 -40 -1 -3 -5 -22 -9 -43 -5 -20 -12 -40 -17 -43
-5 -3 -7 -9 -4 -14 3 -4 -2 -26 -10 -49 -8 -23 -12 -41 -10 -41 3 0 0 -12 -6
-27 -6 -16 -12 -35 -14 -43 -2 -8 -13 -53 -25 -100 -11 -47 -23 -96 -26 -110
-2 -14 -7 -32 -11 -40 -3 -8 -7 -25 -9 -38 -1 -13 -12 -60 -23 -105 -23 -97
-31 -133 -36 -167 -2 -14 -4 -26 -5 -27 -1 -2 -4 -7 -5 -13 -1 -5 -3 -11 -4
-12 -2 -2 -4 -14 -6 -28 -2 -14 -6 -38 -10 -55 -3 -16 -8 -41 -11 -55 -2 -14
-7 -36 -11 -50 -3 -14 -7 -27 -8 -30 0 -3 -5 -27 -10 -55 -4 -27 -9 -57 -11
-65 -1 -8 -5 -26 -9 -40 -3 -14 -8 -41 -10 -60 -4 -33 -11 -69 -15 -80 -1 -3
-2 -9 -1 -14 1 -5 -1 -16 -5 -25 -6 -15 -15 -75 -17 -113 -1 -10 -4 -18 -7
-18 -3 0 -6 -12 -7 -27 -4 -59 -8 -78 -18 -85 -6 -5 -5 -8 3 -8 8 0 10 -5 5
-12 -4 -7 -9 -24 -10 -38 -1 -14 -4 -34 -6 -45 -2 -11 -7 -41 -11 -66 -4 -25
-9 -57 -11 -70 -2 -13 -6 -44 -9 -69 -3 -25 -8 -61 -12 -80 -3 -19 -6 -46 -7
-60 -1 -14 -6 -28 -12 -32 -6 -5 -5 -8 3 -8 7 0 11 -4 8 -8 -8 -13 -17 -61
-22 -117 -2 -27 -6 -66 -9 -85 -2 -19 -6 -57 -9 -85 -3 -27 -9 -77 -12 -110
-4 -33 -7 -75 -8 -92 0 -18 -3 -33 -6 -33 -3 0 -6 -21 -6 -47 -1 -45 -7 -124
-20 -268 -13 -143 -30 -462 -40 -740 -10 -291 -3 -1089 10 -1102 2 -2 0 -17
-4 -33 -4 -16 -5 -31 -2 -35 4 -4 8 -34 8 -68 3 -110 13 -260 19 -265 2 -3 0
-11 -6 -19 -6 -7 -7 -13 -2 -13 5 0 10 -19 10 -42 1 -47 10 -167 20 -268 3
-36 7 -91 7 -122 1 -32 4 -58 7 -58 3 0 6 -12 6 -27 1 -27 8 -90 19 -183 3
-25 6 -66 6 -92 1 -27 5 -48 9 -48 4 0 6 -7 5 -16 -1 -9 1 -41 6 -72 13 -96
20 -156 21 -189 1 -18 4 -33 7 -33 4 0 7 -17 8 -39 2 -21 5 -49 8 -62 2 -13 7
-44 10 -69 3 -25 7 -56 10 -70 6 -25 11 -61 19 -115 2 -16 4 -30 5 -30 1 0 4
-13 5 -30 2 -16 5 -43 9 -60 14 -73 20 -112 20 -132 1 -13 4 -23 8 -23 4 0 7
-8 7 -17 1 -29 7 -77 13 -93 5 -13 19 -87 32 -172 3 -15 7 -31 10 -36 2 -4 7
-26 10 -47 5 -35 11 -64 29 -141 3 -12 8 -37 11 -55 3 -19 8 -44 11 -56 3 -13
7 -31 9 -41 2 -9 9 -37 16 -62 7 -25 14 -56 15 -70 2 -14 11 -47 19 -74 8 -27
13 -53 10 -57 -2 -5 0 -16 5 -26 15 -29 32 -103 26 -112 -3 -5 -2 -11 2 -13 8
-3 43 -122 49 -163 1 -11 3 -22 5 -25 1 -3 3 -9 4 -15 2 -12 20 -74 51 -179
13 -43 21 -82 18 -87 -3 -5 -1 -9 4 -9 5 0 12 -12 15 -27 7 -36 36 -144 44
-163 3 -8 7 -20 9 -27 4 -20 25 -87 34 -108 4 -11 22 -67 40 -125 17 -58 33
-111 35 -118 3 -7 4 -13 4 -15 0 -1 14 -40 31 -86 16 -46 27 -87 24 -92 -3 -5
0 -9 5 -9 6 0 11 -9 11 -19 0 -11 5 -23 11 -26 6 -4 8 -13 5 -21 -3 -8 -1 -14
5 -14 6 0 8 -4 4 -9 -3 -5 0 -13 6 -16 5 -4 8 -13 5 -20 -3 -8 0 -15 5 -17 6
-2 12 -16 12 -31 1 -15 5 -27 9 -27 3 0 10 -14 13 -32 4 -18 11 -39 15 -48 24
-46 50 -122 45 -130 -3 -6 -1 -10 4 -10 6 0 11 -5 11 -11 0 -6 6 -25 14 -42
13 -29 29 -88 26 -95 0 -1 6 -10 15 -18 8 -9 15 -21 15 -28 0 -8 8 -33 19 -57
22 -52 34 -81 36 -91 2 -5 4 -10 5 -13 1 -3 3 -8 5 -12 1 -5 10 -26 20 -48 9
-22 18 -44 20 -50 1 -5 9 -26 18 -45 8 -19 13 -38 11 -42 -3 -5 -1 -8 5 -8 9
0 37 -68 33 -82 -1 -5 3 -8 8 -8 5 0 9 -3 8 -7 -1 -5 6 -23 15 -41 10 -17 15
-32 11 -32 -4 0 0 -7 7 -16 7 -9 15 -25 16 -37 2 -12 8 -24 14 -27 5 -4 11
-17 12 -28 1 -12 5 -22 9 -22 4 0 8 -4 8 -9 0 -5 14 -40 32 -78 17 -37 32 -70
33 -73 0 -3 6 -15 13 -27 7 -13 9 -23 5 -23 -4 0 -2 -4 5 -9 7 -4 14 -17 15
-29 0 -12 6 -23 13 -26 6 -2 14 -21 18 -40 4 -20 11 -36 16 -36 6 0 10 -4 10
-10 0 -5 27 -65 59 -132 33 -68 59 -127 59 -132 0 -5 4 -12 9 -15 9 -6 30 -50
31 -65 0 -5 4 -12 9 -15 4 -3 28 -46 53 -96 25 -49 64 -125 87 -167 22 -43 38
-78 35 -78 -4 0 -2 -4 3 -8 6 -4 17 -20 25 -37 8 -16 22 -42 32 -56 10 -14 15
-29 11 -33 -3 -3 -2 -6 4 -6 6 0 19 -20 30 -45 10 -25 21 -45 26 -45 4 0 7 -6
7 -14 0 -8 3 -16 8 -18 4 -1 18 -25 32 -53 13 -27 39 -73 57 -101 18 -29 29
-54 26 -58 -4 -3 -2 -6 3 -6 5 0 21 -21 34 -47 14 -27 27 -50 30 -53 8 -7 64
-104 65 -110 0 -3 9 -19 20 -35 21 -32 28 -43 71 -115 37 -63 69 -113 179
-283 52 -82 95 -153 95 -158 0 -5 4 -9 9 -9 5 0 23 -25 41 -56 17 -31 40 -66
51 -77 10 -11 21 -29 25 -39 3 -10 10 -18 15 -18 5 0 9 -4 9 -10 0 -8 45 -74
80 -117 6 -7 10 -16 10 -21 0 -5 9 -17 20 -27 11 -10 20 -22 20 -27 0 -5 6
-16 13 -23 29 -33 37 -45 32 -45 -4 0 0 -6 7 -13 14 -15 19 -21 112 -152 36
-49 72 -97 80 -106 9 -9 16 -21 16 -27 0 -7 5 -12 10 -12 6 0 10 -7 10 -15 0
-8 4 -15 8 -15 5 0 24 -21 42 -47 19 -27 36 -50 40 -53 3 -3 25 -32 50 -65 46
-63 48 -65 81 -105 11 -14 30 -38 42 -54 12 -15 30 -36 39 -44 10 -9 18 -20
18 -24 0 -5 8 -16 17 -26 36 -37 63 -72 63 -81 0 -5 4 -11 9 -13 4 -1 41 -43
82 -93 40 -49 85 -102 99 -117 14 -14 35 -39 47 -55 12 -15 34 -42 50 -60 15
-17 47 -53 69 -80 23 -26 56 -63 73 -80 17 -18 31 -35 31 -37 0 -2 15 -20 33
-39 17 -19 61 -67 97 -106 36 -40 93 -101 127 -137 33 -35 60 -64 58 -64 -1 0
49 -52 111 -116 63 -64 114 -121 114 -127 0 -6 2 -8 5 -6 2 3 93 -82 200 -188
108 -106 201 -193 206 -193 6 0 7 -4 4 -10 -3 -5 -2 -10 2 -10 5 0 36 -25 68
-55 33 -30 93 -86 134 -123 41 -37 87 -79 103 -95 15 -15 29 -27 32 -27 2 0
17 -12 33 -28 33 -31 150 -134 208 -183 22 -19 42 -36 45 -39 3 -3 32 -27 65
-55 33 -27 69 -57 80 -67 11 -9 32 -27 47 -40 15 -13 42 -34 60 -48 18 -14 40
-33 50 -43 10 -9 20 -17 23 -17 6 0 40 -27 71 -58 13 -12 27 -22 33 -22 5 0
11 -4 13 -8 2 -4 30 -29 63 -54 33 -26 68 -54 77 -63 10 -8 22 -15 26 -15 4 0
14 -9 22 -20 8 -11 19 -20 25 -20 5 0 24 -12 40 -26 60 -51 71 -60 113 -88 23
-16 42 -33 42 -37 0 -5 6 -9 13 -9 7 0 23 -9 35 -20 12 -11 25 -20 31 -20 5 0
11 -3 13 -8 2 -4 50 -41 108 -82 58 -41 107 -78 108 -82 2 -5 10 -8 17 -8 7 0
15 -4 17 -8 2 -4 27 -23 56 -42 28 -18 52 -37 52 -42 0 -4 5 -8 10 -8 10 0
213 -134 237 -157 7 -6 22 -15 33 -18 11 -3 20 -11 20 -16 0 -5 5 -9 10 -9 6
0 44 -22 85 -50 41 -27 77 -50 80 -50 3 0 15 -9 27 -20 12 -11 28 -20 35 -20
7 0 13 -4 13 -10 0 -5 6 -10 14 -10 8 0 27 -11 43 -24 15 -13 38 -26 51 -30
12 -4 22 -11 22 -16 0 -5 16 -14 34 -21 19 -7 33 -16 31 -19 -2 -4 11 -13 30
-20 19 -8 35 -17 35 -21 0 -4 8 -9 18 -13 19 -6 64 -32 109 -62 15 -10 30 -19
33 -19 7 -1 104 -58 110 -65 3 -3 16 -11 30 -17 14 -7 52 -28 85 -48 33 -19
68 -38 78 -41 9 -4 17 -10 17 -15 0 -5 3 -8 7 -8 15 3 73 -23 73 -32 0 -5 7
-9 15 -9 8 0 15 -5 15 -11 0 -5 4 -8 9 -5 5 3 19 -2 32 -12 13 -10 56 -35 96
-55 90 -45 114 -58 133 -69 8 -4 27 -13 42 -19 16 -6 28 -15 28 -21 0 -5 4 -7
9 -3 5 3 16 -2 24 -10 9 -8 20 -15 26 -15 14 0 54 -22 63 -35 4 -5 8 -6 8 -1
0 5 7 2 16 -5 9 -7 23 -14 32 -16 9 -1 18 -7 20 -12 2 -6 9 -11 16 -11 7 0 61
-24 119 -54 58 -29 109 -51 112 -48 3 3 5 0 5 -6 0 -7 4 -12 9 -12 5 0 38 -13
73 -29 35 -15 78 -35 96 -42 17 -8 32 -17 32 -21 0 -5 6 -8 14 -8 7 0 49 -17
92 -37 44 -20 81 -37 84 -38 3 -1 21 -8 40 -17 19 -8 40 -16 45 -17 6 -2 16
-7 23 -13 6 -6 12 -7 12 -2 0 5 4 3 9 -4 4 -7 18 -14 29 -15 12 -1 22 -5 22
-10 0 -4 4 -6 9 -3 5 4 11 2 13 -4 1 -5 12 -11 23 -13 17 -3 81 -30 137 -58
10 -5 25 -9 33 -9 8 0 15 -5 15 -12 0 -6 3 -9 6 -6 3 4 30 -5 60 -18 30 -13
61 -24 69 -24 8 0 15 -5 15 -11 0 -5 4 -8 8 -5 4 2 23 -2 42 -11 19 -8 44 -19
55 -24 11 -5 63 -25 115 -44 52 -20 102 -38 110 -42 23 -10 23 -10 58 -18 17
-4 32 -10 32 -14 0 -4 10 -7 22 -8 11 -1 25 -8 29 -15 5 -7 9 -10 9 -5 0 4 17
0 38 -9 20 -8 48 -18 62 -20 13 -3 29 -9 36 -15 6 -5 14 -6 17 -2 4 3 7 2 7
-3 0 -5 12 -11 27 -12 15 -1 29 -5 32 -10 3 -4 11 -7 16 -7 15 0 149 -47 155
-54 3 -3 10 -6 15 -7 6 -1 37 -9 70 -20 33 -10 63 -17 68 -16 4 1 7 -2 7 -8 0
-5 7 -7 15 -4 8 4 15 1 15 -6 0 -6 5 -8 10 -5 6 4 16 2 23 -3 7 -6 15 -11 20
-11 4 -1 8 -1 10 -2 1 0 13 -3 27 -5 13 -2 27 -8 30 -12 3 -4 12 -8 20 -9 24
-3 52 -10 98 -27 23 -8 42 -13 42 -9 0 3 6 1 13 -5 6 -6 14 -10 17 -10 10 0
65 -14 80 -20 8 -3 20 -6 25 -7 6 -1 44 -12 85 -24 41 -13 82 -25 90 -26 8 -2
15 -4 15 -5 0 -1 13 -4 30 -6 16 -3 32 -9 35 -12 3 -4 15 -7 27 -6 13 1 34 -5
48 -12 14 -7 25 -11 25 -10 0 2 33 -5 73 -16 39 -10 79 -21 87 -23 36 -9 157
-37 180 -41 14 -3 32 -8 40 -11 8 -3 24 -7 35 -9 51 -10 60 -12 60 -13 0 -2 7
-4 15 -6 61 -12 148 -32 155 -35 3 -1 14 -4 25 -5 11 -1 21 -3 23 -5 1 -1 13
-3 27 -5 53 -8 96 -17 110 -22 8 -3 22 -7 30 -9 8 -2 31 -6 50 -10 19 -3 44
-8 55 -10 11 -1 31 -5 45 -9 14 -3 41 -8 60 -11 19 -3 42 -7 50 -10 8 -3 35
-7 59 -10 24 -2 49 -8 55 -11 6 -4 25 -8 41 -9 17 -1 30 -3 30 -4 0 -2 72 -14
155 -25 14 -2 25 -4 25 -5 0 -1 14 -3 32 -5 18 -2 56 -8 85 -14 29 -6 71 -13
93 -16 22 -2 56 -7 75 -10 19 -3 49 -7 65 -9 17 -2 30 -5 30 -6 0 -1 20 -3 44
-5 25 -3 61 -7 80 -10 84 -14 118 -18 149 -19 17 0 32 -3 32 -6 0 -3 15 -5 33
-6 82 -3 157 -9 157 -14 0 -3 15 -5 33 -6 32 0 122 -8 227 -19 30 -4 78 -8
105 -10 28 -2 50 -4 50 -5 0 -1 86 -7 200 -14 33 -2 60 -5 60 -6 0 0 52 -3
115 -6 144 -6 224 -11 230 -14 3 -1 10 -1 15 0 25 5 66 6 70 1 2 -3 56 -6 122
-6 67 0 121 -4 125 -10 5 -6 8 -5 8 3 0 7 5 10 11 6 6 -3 158 -6 337 -5 476 1
616 5 624 16 5 6 8 5 8 -3 0 -7 5 -10 10 -7 6 4 55 8 108 10 95 4 165 8 367
21 55 3 114 7 132 8 18 1 35 5 39 9 4 4 13 2 21 -4 7 -6 13 -7 13 -2 0 5 10 9
23 9 12 1 65 4 117 8 90 7 138 11 220 21 19 2 58 6 85 9 28 3 68 8 90 11 90
10 171 18 193 19 12 0 22 3 22 6 0 4 21 8 48 9 26 1 61 5 77 7 17 3 45 7 64 9
19 2 50 7 70 10 20 4 50 9 66 11 17 2 44 6 60 9 17 3 44 7 61 9 17 1 35 5 40
8 5 3 17 4 27 3 9 -2 17 0 17 4 0 4 8 7 18 7 9 0 40 4 67 8 28 4 61 9 75 10
14 2 41 8 60 13 19 5 45 9 58 8 12 -1 22 1 22 5 0 4 10 6 23 6 12 -1 28 2 34
7 7 5 22 7 33 4 11 -3 20 -2 20 3 0 4 10 6 23 6 12 -1 27 0 32 3 6 3 15 6 20
7 6 1 24 4 42 7 17 3 36 7 40 10 5 3 29 8 53 12 58 8 84 13 88 15 1 2 5 3 10
4 31 8 72 16 97 21 17 2 45 9 64 14 18 6 36 10 40 9 3 -1 24 4 46 10 22 6 54
14 70 17 42 8 60 13 60 16 0 1 9 3 20 4 11 1 38 7 60 13 22 6 51 13 65 16 68
14 81 17 105 26 14 5 25 7 25 4 0 -4 6 -1 14 5 7 6 21 9 30 5 9 -3 16 -2 16 3
0 7 101 34 120 32 3 0 19 5 35 11 29 11 45 16 92 26 12 2 33 8 47 14 13 5 27
6 30 3 3 -4 6 0 6 7 0 7 3 11 6 7 3 -3 23 1 45 8 21 8 39 12 39 9 0 -2 9 0 21
6 20 11 61 22 87 23 6 0 12 4 12 9 0 4 8 8 19 8 10 0 38 7 62 16 24 9 53 17
64 19 18 2 50 13 95 32 19 7 40 13 63 15 9 1 17 6 17 11 0 5 8 7 18 5 10 -3
27 1 37 8 10 8 24 14 31 14 7 0 25 5 41 12 15 6 34 10 41 9 6 -1 12 3 12 10 0
6 6 9 14 6 7 -3 17 -2 22 3 8 7 103 41 129 46 28 5 40 10 45 14 5 6 87 33 102
34 3 1 10 4 14 9 4 4 16 7 26 7 10 0 18 4 18 10 0 5 7 7 15 4 8 -4 15 -1 15 7
0 7 3 10 6 7 3 -3 32 4 64 17 32 13 61 20 64 17 3 -3 6 0 6 6 0 6 13 13 30 17
24 5 133 46 265 100 11 5 22 9 25 10 7 2 62 24 80 32 8 3 17 7 20 8 3 1 16 6
30 12 14 6 42 18 63 26 20 9 37 13 37 9 0 -4 4 -2 8 4 8 12 123 60 135 56 4
-1 7 2 7 8 0 5 5 10 11 10 5 0 29 9 53 19 23 11 48 21 56 23 8 2 17 5 20 8 5
6 90 44 100 46 7 1 179 82 212 99 14 8 33 15 41 15 9 0 23 7 31 16 9 9 22 17
29 18 23 4 152 69 159 80 4 6 8 8 8 4 0 -8 340 162 365 182 8 7 15 10 15 6 0
-3 18 5 39 18 21 14 42 22 45 19 3 -4 6 0 6 7 0 7 3 10 6 7 4 -3 18 2 32 13
13 11 28 17 33 14 5 -3 9 -1 9 3 0 5 26 22 58 38 31 17 59 33 60 38 2 4 8 5
13 1 5 -3 9 0 9 6 0 6 4 9 9 6 5 -4 11 -3 13 1 1 5 23 18 47 31 74 38 106 57
112 65 3 5 8 8 10 6 2 -1 22 9 44 22 22 13 52 31 68 38 15 8 27 18 27 23 0 5
4 7 9 4 5 -3 14 1 21 9 7 8 18 15 25 15 7 0 24 9 37 20 14 10 28 16 32 13 3
-3 6 -1 6 5 0 7 7 12 15 12 8 0 15 4 15 10 0 5 11 12 25 16 14 3 25 10 25 15
0 5 5 9 11 9 6 0 30 14 54 30 24 17 48 30 54 30 6 0 11 5 11 10 0 6 7 10 15
10 8 0 15 4 15 9 0 5 11 12 25 15 14 4 25 11 25 16 0 6 7 10 15 10 8 0 15 5
15 12 0 6 3 9 6 5 4 -3 35 14 70 38 35 25 64 42 64 39 0 -3 7 1 15 8 33 29 45
38 45 33 0 -4 7 0 15 7 25 23 39 33 68 47 15 8 27 18 27 23 0 4 7 8 15 8 8 0
24 9 34 19 10 10 28 22 40 26 12 3 21 11 21 16 0 5 7 9 15 9 8 0 15 4 15 8 0
5 12 15 28 23 15 8 29 16 32 20 3 3 41 30 85 60 44 30 82 57 83 62 2 4 8 5 13
1 5 -3 9 -1 9 4 0 5 29 28 65 51 36 23 65 46 65 52 0 5 5 9 11 9 10 0 131 86
211 150 20 17 41 30 47 30 6 0 11 4 11 10 0 5 12 16 28 24 15 8 41 26 57 40
40 34 44 37 90 71 22 16 54 41 71 55 17 14 48 39 69 55 21 17 44 36 51 43 8 7
14 11 14 8 0 -3 20 13 44 35 25 23 47 41 50 40 5 0 38 27 101 84 13 11 40 34
61 50 21 17 48 40 60 52 13 13 25 23 28 23 3 0 21 15 40 33 67 61 108 97 112
97 3 0 14 9 98 85 18 17 64 57 101 90 38 33 91 81 117 108 27 26 50 47 52 47
4 0 147 135 247 233 44 42 84 77 91 77 6 0 9 2 6 5 -6 7 78 91 99 99 9 4 14 9
11 11 -7 7 105 122 115 117 4 -2 7 1 7 7 0 6 39 51 88 100 124 126 242 251
242 255 0 3 24 29 53 59 48 50 79 85 184 206 21 24 49 56 63 71 14 14 45 50
70 80 25 29 51 59 58 66 6 7 12 15 12 19 0 3 16 22 36 41 20 19 34 34 30 34
-4 0 9 16 28 35 20 19 33 35 30 35 -3 0 5 10 18 23 13 13 32 36 43 51 11 16
25 33 30 40 6 6 28 33 50 61 22 27 45 55 50 61 6 6 21 26 35 44 14 18 31 39
38 46 6 7 12 18 12 24 0 6 5 8 10 5 6 -3 10 1 10 9 0 9 5 16 10 16 6 0 10 6
10 14 0 8 4 16 9 18 9 3 261 338 306 406 15 23 32 42 37 42 5 0 6 5 3 10 -3 6
1 13 9 16 9 3 16 12 16 19 0 7 3 15 8 17 4 1 27 32 52 68 24 36 48 67 52 68 4
2 8 10 8 18 0 8 7 17 15 20 8 4 13 10 10 14 -3 5 3 13 12 19 10 6 14 11 8 11
-7 0 -7 3 0 8 6 4 15 14 20 24 31 51 171 254 177 256 5 2 8 8 8 13 0 6 22 43
50 84 28 41 50 78 50 84 0 5 4 11 8 13 4 2 21 26 37 53 16 28 35 56 42 63 7 8
11 18 8 23 -4 5 -1 9 5 9 6 0 15 10 20 23 10 23 31 58 40 67 8 8 29 43 37 60
3 8 19 34 35 58 16 23 25 42 21 42 -4 0 -3 4 3 8 6 4 23 31 39 60 15 28 32 52
37 52 4 0 7 3 6 8 -3 11 39 87 56 101 9 7 14 17 11 21 -3 5 1 14 8 22 7 7 23
34 36 61 12 26 28 47 34 47 5 0 8 3 5 6 -3 3 12 37 33 76 21 39 39 74 39 79 0
4 4 9 8 11 4 2 25 37 46 78 72 141 121 235 131 250 5 8 10 17 10 20 1 3 23 48
50 100 27 52 50 102 51 110 2 8 8 16 13 18 6 2 11 9 11 15 0 7 15 44 34 82 69
138 148 311 150 328 1 4 8 12 16 17 8 5 11 10 6 10 -5 0 -3 7 4 15 7 8 9 15 5
15 -4 0 -3 6 3 12 15 20 112 250 111 264 0 4 4 10 10 14 6 3 13 15 15 26 2 10
15 44 29 74 14 31 34 78 45 105 10 28 23 59 27 70 5 11 9 22 9 25 1 3 7 15 14
28 7 12 9 22 5 22 -4 0 -2 5 5 12 7 7 12 20 12 30 0 10 4 18 10 18 5 0 9 3 8
8 -1 4 4 23 11 42 8 19 15 37 15 40 1 3 7 15 14 28 7 12 10 22 6 22 -3 0 -1 6
5 13 6 8 8 17 4 20 -3 4 -1 7 5 7 7 0 11 3 10 8 -3 7 33 114 57 167 10 25 36
96 40 115 1 3 7 18 13 33 7 16 12 35 12 43 0 8 5 14 12 14 6 0 9 3 5 6 -3 4 0
22 8 40 8 19 12 34 9 34 -2 0 2 13 10 29 9 16 12 31 9 35 -4 3 -2 6 4 6 5 0
10 6 10 13 0 10 33 113 50 157 4 8 7 18 8 23 2 4 4 9 5 12 1 3 3 8 4 13 13 57
31 112 37 112 4 0 6 8 4 18 -1 9 1 22 5 27 9 12 24 67 22 78 -1 4 2 7 8 7 5 0
7 7 4 15 -4 8 -1 15 7 15 7 0 10 3 7 6 -4 3 -2 20 3 37 6 18 12 39 14 47 2 8
9 29 15 45 7 17 13 39 14 50 2 18 39 148 53 185 3 8 7 21 9 29 1 7 8 36 15 65
7 28 12 54 11 59 -1 4 2 7 6 7 4 0 8 8 9 18 1 18 10 57 13 57 2 0 7 22 15 60
3 17 9 39 12 50 4 11 8 23 9 28 1 4 3 9 4 12 1 3 3 13 5 23 1 9 4 24 8 32 3 8
8 31 11 51 3 20 10 47 15 61 5 14 12 42 15 62 4 21 8 41 11 45 2 4 6 18 9 32
2 13 12 56 21 94 9 39 18 81 20 95 1 14 10 57 20 95 9 39 18 79 20 90 1 11 5
31 9 45 3 14 8 39 11 55 11 56 14 70 19 95 3 14 8 41 10 60 7 46 15 89 23 120
3 14 7 34 8 45 1 11 6 36 10 55 4 19 9 46 11 60 2 14 6 41 9 60 4 19 8 46 10
60 3 25 10 67 21 137 3 21 6 44 7 51 0 6 5 12 11 12 6 0 6 4 -2 12 -6 6 -8 17
-3 27 5 9 7 24 6 34 -2 9 0 17 3 17 4 0 7 12 8 28 1 29 11 114 14 122 1 3 2 9
1 14 -1 4 4 14 10 22 9 11 9 14 0 14 -7 0 -9 4 -6 10 6 9 13 62 20 135 1 22 4
40 5 40 1 0 3 18 5 40 1 22 4 40 5 40 0 0 4 27 6 60 8 95 12 130 14 130 1 0 4
20 5 45 1 25 3 45 4 45 1 0 4 29 7 65 2 36 6 90 9 120 3 30 7 78 8 105 2 28 5
55 8 60 2 6 4 43 4 82 0 40 2 73 5 73 5 0 10 126 14 295 0 39 6 73 11 77 6 5
5 8 -3 8 -7 0 -10 5 -6 11 20 33 20 1225 0 1257 -4 7 -2 12 5 12 8 0 9 4 0 13
-8 10 -7 17 1 25 7 7 8 12 2 12 -5 0 -10 30 -10 68 -1 37 -4 112 -8 167 -3 55
-8 136 -11 180 -7 121 -14 210 -16 210 -1 0 -2 18 -4 40 -5 86 -16 185 -21
200 -4 8 -1 15 6 15 9 0 9 4 2 13 -6 6 -13 44 -16 82 -4 39 -9 90 -12 115 -2
25 -6 63 -9 85 -2 22 -4 40 -5 40 -1 0 -3 18 -5 40 -10 87 -12 103 -20 115 -6
9 -4 11 5 5 10 -6 11 -4 4 6 -5 8 -10 25 -11 39 -2 14 -5 43 -8 65 -4 22 -8
56 -10 75 -2 19 -4 35 -5 35 -1 0 -3 18 -6 40 -2 22 -8 67 -14 100 -12 66 -22
143 -23 163 0 6 -3 12 -7 12 -3 0 -6 17 -7 38 -1 20 -4 48 -7 62 -4 14 -9 41
-12 60 -2 19 -6 47 -8 62 -2 15 -6 30 -9 35 -3 4 -8 28 -11 53 -7 52 -14 85
-16 85 -1 0 -3 14 -5 30 -1 17 -4 30 -5 30 -1 0 -3 11 -4 25 -1 14 -6 36 -10
48 -4 13 -10 36 -12 50 -11 68 -22 126 -24 130 -3 2 -4 5 -13 52 -4 19 -10 46
-13 60 -3 14 -7 36 -10 50 -3 14 -9 40 -15 58 -6 18 -8 39 -5 47 3 8 1 15 -4
15 -6 0 -9 3 -8 8 1 4 -2 18 -5 32 -4 14 -9 34 -11 45 -1 11 -6 27 -9 35 -4 8
-8 29 -11 45 -2 17 -5 30 -6 30 -2 0 -4 9 -5 20 -1 11 -17 74 -34 140 -31 117
-35 133 -46 175 -8 32 -13 52 -29 107 -7 28 -11 54 -8 57 3 3 0 6 -7 6 -7 0
-11 7 -8 15 4 8 2 17 -3 20 -6 4 -10 16 -10 29 0 12 -3 26 -7 30 -7 7 -11 23
-16 61 -1 11 -5 22 -8 25 -7 7 -41 133 -37 141 2 3 -3 13 -11 22 -7 10 -10 17
-6 17 4 0 2 6 -4 14 -6 7 -12 25 -13 40 -1 14 -6 26 -11 26 -4 0 -7 6 -5 13 2
11 -31 121 -52 172 -4 11 -32 94 -61 185 -29 91 -58 168 -64 172 -5 4 -7 8 -3
8 4 0 -7 37 -23 83 -16 45 -32 90 -34 101 -2 10 -9 24 -16 32 -6 8 -9 14 -5
14 4 0 0 13 -9 30 -8 16 -15 38 -15 49 0 10 -4 21 -10 23 -5 2 -11 12 -13 23
-2 11 -7 29 -12 40 -4 11 -30 79 -58 150 -29 72 -52 132 -52 135 -1 3 -10 25
-21 50 -10 25 -18 48 -16 53 1 4 -3 7 -8 7 -6 0 -10 6 -10 14 0 15 -36 103
-91 221 -13 28 -24 55 -24 60 -1 6 -10 28 -20 50 -11 22 -20 42 -20 45 -1 8
-44 100 -71 151 -13 25 -21 49 -17 53 3 3 1 6 -6 6 -7 0 -10 4 -7 9 3 5 -1 14
-9 21 -8 7 -15 19 -15 26 0 8 -4 22 -10 32 -27 47 -102 209 -106 226 -2 11 -7
22 -12 25 -10 7 -65 119 -68 139 -1 8 -10 22 -20 33 -9 10 -14 19 -9 19 4 0 3
6 -3 13 -19 24 -72 127 -64 127 4 0 2 4 -4 8 -6 4 -24 34 -40 67 -16 33 -31
62 -34 65 -3 3 -21 37 -40 75 -19 39 -38 72 -42 73 -5 2 -8 7 -8 12 0 9 -164
305 -205 370 -14 22 -22 40 -18 40 4 0 -2 7 -13 15 -10 8 -14 15 -9 15 6 0 6
3 -1 8 -6 4 -24 32 -41 62 -30 53 -109 183 -165 272 -15 24 -41 68 -59 98 -18
30 -36 57 -41 58 -4 2 -8 10 -8 18 0 8 -5 14 -11 14 -5 0 -8 4 -5 9 4 5 3 11
-1 13 -5 1 -33 41 -63 88 -30 47 -59 88 -65 92 -5 4 -6 8 -2 8 4 0 -1 10 -13
22 -11 12 -20 27 -20 34 0 7 -3 14 -7 16 -11 4 -53 65 -53 75 0 5 -9 15 -20
23 -11 8 -20 20 -20 26 0 7 -7 20 -16 28 -8 9 -13 16 -9 16 3 0 -6 12 -20 28
-14 15 -28 35 -31 45 -3 9 -10 17 -15 17 -5 0 -9 6 -9 13 0 7 -9 23 -20 35
-11 12 -20 26 -20 32 0 5 -4 10 -8 10 -4 0 -16 15 -27 33 -10 17 -24 36 -32
40 -7 4 -13 14 -13 22 0 7 -4 15 -8 17 -5 2 -23 26 -42 53 -19 28 -42 59 -52
69 -10 11 -18 23 -18 26 0 4 -11 20 -25 36 -14 16 -35 44 -46 62 -11 17 -26
32 -31 32 -6 0 -9 3 -6 6 4 3 -1 14 -10 24 -33 36 -42 49 -42 60 0 5 -4 10 -8
10 -5 0 -30 30 -58 68 -27 37 -57 76 -66 87 -33 40 -53 64 -75 92 -72 92 -119
148 -125 151 -5 2 -8 8 -8 13 0 5 -14 23 -30 41 -17 17 -41 45 -53 60 -12 16
-31 39 -42 52 -11 12 -38 44 -60 70 -22 27 -48 58 -57 69 -10 11 -18 24 -18
29 0 4 -8 8 -17 8 -9 0 -14 3 -11 6 6 5 -37 56 -109 131 -18 18 -30 33 -27 33
2 0 -10 15 -28 33 -18 19 -67 71 -108 117 -41 46 -99 108 -127 137 -29 30 -53
59 -53 64 0 6 -4 7 -10 4 -5 -3 -10 -2 -10 3 0 5 -60 71 -133 146 -74 75 -131
136 -128 136 3 0 -6 8 -22 18 -15 10 -24 22 -20 25 3 4 2 7 -3 7 -6 0 -72 60
-147 134 -75 73 -137 132 -137 131 0 -1 -33 30 -74 69 -41 39 -112 105 -157
146 -45 41 -93 85 -105 98 -13 12 -25 22 -28 22 -3 0 -20 15 -39 33 -18 17
-59 55 -91 82 -32 28 -71 62 -86 76 -15 14 -42 36 -60 50 -18 13 -50 41 -71
62 -22 20 -42 37 -44 37 -3 0 -13 8 -24 18 -10 9 -38 33 -62 52 -23 19 -51 43
-61 53 -10 9 -18 14 -18 10 0 -5 -4 -3 -8 3 -7 9 -88 77 -163 136 -19 14 -45
36 -59 47 -30 24 -20 17 -145 112 -55 41 -140 105 -188 142 -48 37 -92 67 -96
67 -5 0 -11 3 -13 8 -4 9 -85 72 -92 72 -8 0 -100 70 -107 82 -3 5 -9 9 -13 8
-7 -1 -79 47 -105 70 -9 8 -29 21 -44 27 -15 7 -27 17 -27 23 0 5 -6 10 -14
10 -7 0 -25 11 -40 25 -14 13 -30 25 -34 25 -4 0 -15 7 -25 15 -9 8 -22 15
-27 15 -6 0 -10 5 -10 10 0 6 -6 10 -13 10 -7 0 -23 9 -35 20 -12 11 -25 20
-30 20 -5 0 -17 9 -27 20 -10 11 -21 18 -25 15 -3 -2 -17 6 -31 19 -13 12 -28
24 -34 26 -5 1 -43 25 -83 52 -41 26 -77 48 -81 48 -4 0 -16 8 -27 18 -11 9
-36 26 -57 36 -20 11 -37 23 -37 28 0 4 -6 8 -13 8 -7 0 -35 15 -62 33 -49 31
-96 60 -162 98 -35 20 -75 44 -161 93 -29 17 -74 43 -100 59 -26 15 -55 30
-64 33 -10 4 -18 11 -18 17 0 6 -2 8 -6 5 -3 -3 -43 16 -90 43 -47 27 -89 49
-94 49 -6 0 -10 5 -10 12 0 6 -3 9 -6 5 -4 -3 -22 5 -42 18 -19 13 -39 22 -44
19 -4 -3 -8 -1 -8 5 0 5 -9 12 -20 16 -10 3 -52 24 -92 47 -40 22 -79 41 -85
41 -7 0 -13 4 -13 9 0 4 -6 8 -14 8 -8 0 -21 6 -28 13 -14 14 -17 16 -48 24
-11 3 -20 9 -20 14 0 5 -7 9 -15 9 -17 0 -50 17 -77 39 -10 8 -18 11 -18 7 0
-4 -25 7 -56 23 -30 17 -61 31 -69 31 -7 0 -15 3 -17 8 -4 9 -199 102 -214
102 -6 0 -17 7 -24 15 -7 8 -16 13 -20 10 -5 -3 -16 3 -26 12 -10 10 -18 16
-19 13 -2 -5 -67 23 -202 87 -29 13 -54 23 -56 21 -1 -2 -15 5 -30 15 -15 9
-27 15 -27 12 0 -4 -12 0 -27 9 -16 8 -45 21 -65 30 -21 9 -54 23 -73 31 -19
8 -50 21 -67 29 -45 19 -82 30 -90 28 -5 -1 -8 3 -8 8 0 6 -6 10 -13 10 -8 0
-29 8 -48 17 -19 10 -41 18 -49 20 -8 1 -23 6 -35 12 -42 21 -177 71 -191 71
-8 0 -14 5 -14 11 0 6 -7 9 -15 5 -8 -3 -15 -1 -15 4 0 6 -11 10 -24 10 -14 0
-31 6 -38 13 -7 7 -20 13 -28 13 -14 1 -47 12 -95 33 -33 14 -119 45 -133 47
-8 1 -21 6 -30 10 -9 4 -21 8 -27 10 -5 1 -23 8 -40 15 -16 6 -36 13 -43 15
-8 1 -21 6 -30 10 -9 4 -20 8 -24 9 -5 2 -10 4 -13 5 -3 1 -9 4 -15 5 -5 1
-12 4 -15 5 -3 1 -8 3 -12 4 -24 6 -252 79 -271 87 -13 5 -32 9 -42 9 -11 0
-20 4 -20 10 0 5 -3 9 -7 8 -8 -2 -87 19 -113 29 -8 4 -17 7 -20 8 -3 0 -30 7
-60 14 -30 8 -61 19 -69 25 -8 6 -17 10 -20 8 -8 -4 -101 18 -121 28 -8 5 -29
10 -47 13 -17 3 -36 8 -41 11 -4 3 -19 7 -33 10 -13 3 -78 19 -144 36 -66 18
-128 34 -137 36 -24 5 -55 13 -75 19 -16 4 -44 11 -168 40 -11 3 -56 14 -100
24 -44 11 -96 23 -115 26 -19 3 -44 9 -55 12 -11 4 -27 8 -35 9 -8 1 -28 5
-45 9 -16 3 -64 13 -105 21 -41 9 -84 18 -95 20 -11 2 -35 7 -54 10 -18 3 -43
8 -55 11 -11 2 -30 6 -41 7 -11 1 -35 6 -53 10 -19 4 -43 9 -55 11 -42 7 -99
17 -159 29 -21 5 -75 13 -138 21 -14 2 -25 4 -25 5 0 1 -13 3 -30 5 -16 2 -43
6 -60 9 -67 13 -183 28 -222 29 -7 0 -13 3 -13 7 0 3 -15 5 -32 5 -18 -1 -37
0 -41 3 -5 2 -27 6 -50 7 -23 2 -60 7 -82 10 -22 4 -60 9 -85 10 -25 2 -45 4
-45 5 0 3 -83 12 -235 26 -30 2 -59 9 -64 14 -6 6 -16 5 -28 -1 -10 -5 -24 -7
-30 -3 -7 4 -39 9 -73 10 -33 1 -60 3 -60 4 0 1 -27 4 -60 5 -33 2 -60 4 -60
5 0 2 -92 10 -185 15 -47 3 -132 8 -190 11 -58 4 -142 7 -187 8 -46 0 -83 3
-83 6 0 3 -48 5 -108 5 -59 0 -133 2 -165 5 -32 3 -60 2 -63 -2 -3 -4 -15 -3
-28 2 -15 5 -27 5 -35 -3 -6 -6 -11 -7 -11 -1 0 9 -476 10 -512 0 -9 -2 -18 0
-20 6 -2 5 -7 6 -10 2z"/>
</g>
</svg>
